/* XPM */
static char *wall[] = {
/* width height num_colors chars_per_pixel */
"16 16 2 1",
/* colors */
". c #7d7d7d",   /* gris claro */
"# c #3d3d3d",   /* gris oscuro */
/* pixels */
"################",
"#..............#",
"#.############.#",
"#.#..........#.#",
"#.#.########.#.#",
"#.#.#......#.#.#",
"#.#.#.####.#.#.#",
"#.#.#.#..#.#.#.#",
"#.#.#.#..#.#.#.#",
"#.#.#.####.#.#.#",
"#.#.#......#.#.#",
"#.#.########.#.#",
"#.#..........#.#",
"#.############.#",
"#..............#",
"################"
};